<svg width="24" height="24" viewBox="0 0 32 32" fill="none" xmlns="http://www.w3.org/2000/svg">
<g clip-path="url(#clip0)">
<path d="M30.9402 29.897C30.9292 29.897 30.9172 29.897 30.9062 29.896C30.4002 29.879 30.0812 29.487 30.0382 28.983C30.0042 28.612 29.0082 19.636 14.9992 19.646L14.9682 25.385C14.9682 25.772 14.7452 26.124 14.3952 26.289C14.0482 26.455 13.6312 26.404 13.3342 26.157L0.366165 15.414C0.134165 15.224 0.000164032 14.939 0.00116348 14.64C0.00216293 14.34 0.137165 14.056 0.369165 13.867L13.3362 3.224C13.6352 2.98 14.0482 2.933 14.3962 3.096C14.7452 3.262 14.9672 3.614 14.9672 3.999L14.9982 9.612C20.8102 9.797 25.3102 11.666 28.2282 15.08C32.9762 20.636 31.9162 28.71 31.8672 29.046C31.7932 29.536 31.4342 29.897 30.9402 29.897ZM13.9682 17.63C13.9692 17.63 13.9702 17.63 13.9702 17.63C23.9772 17.636 27.8012 21.015 29.9842 23.999C29.6652 21.608 28.7322 18.727 26.7032 16.373C24.0052 13.245 19.6582 11.597 13.9682 11.597C13.4152 11.597 12.9682 11.15 12.9682 10.597V6.104L2.57917 14.646L12.9682 23.268V18.63C12.9682 18.364 13.0732 18.109 13.2622 17.922C13.4492 17.735 13.7032 17.63 13.9682 17.63Z" fill="#737373"/>
</g>
<defs>
<clipPath id="clip0">
<rect width="32" height="32" fill="white" transform="matrix(-1 0 0 1 32 0)"/>
</clipPath>
</defs>
</svg>
