<svg>

  <symbol>
    <g id="close">
      <path d="M284.286,256.002L506.143,34.144c7.811-7.811,7.811-20.475,0-28.285c-7.811-7.81-20.475-7.811-28.285,0L256,227.717
			L34.143,5.859c-7.811-7.811-20.475-7.811-28.285,0c-7.81,7.811-7.811,20.475,0,28.285l221.857,221.857L5.858,477.859
			c-7.811,7.811-7.811,20.475,0,28.285c3.905,3.905,9.024,5.857,14.143,5.857c5.119,0,10.237-1.952,14.143-5.857L256,284.287
			l221.857,221.857c3.905,3.905,9.024,5.857,14.143,5.857s10.237-1.952,14.143-5.857c7.811-7.811,7.811-20.475,0-28.285
			L284.286,256.002z"/>
    </g>
  </symbol>

  <symbol id="ic">
    <path d="M81,40.933c0-4.25-3-7.811-6.996-8.673c-0.922-5.312-3.588-10.178-7.623-13.844  c-2.459-2.239-5.326-3.913-8.408-4.981c-0.797-3.676-4.066-6.437-7.979-6.437c-3.908,0-7.184,2.764-7.979,6.442  c-3.078,1.065-5.939,2.741-8.396,4.977c-4.035,3.666-6.701,8.531-7.623,13.844C22.002,33.123,19,36.682,19,40.933  c0,2.617,1.145,4.965,2.957,6.589c0.047,0.195,0.119,0.389,0.225,0.568l26.004,43.873c0.383,0.646,1.072,1.04,1.824,1.04  c0.748,0,1.439-0.395,1.824-1.04L77.82,48.089c0.105-0.179,0.178-0.373,0.225-0.568C79.855,45.897,81,43.549,81,40.933z   M49.994,11.235c2.164,0,3.928,1.762,3.928,3.93c0,2.165-1.764,3.929-3.928,3.929s-3.928-1.764-3.928-3.929  C46.066,12.997,47.83,11.235,49.994,11.235z M27.842,36.301c0.014,0,0.027,0,0.031,0c1.086,0,1.998-0.817,2.115-1.907  c0.762-7.592,5.641-13.791,12.303-16.535c1.119,3.184,4.146,5.475,7.703,5.475c3.561,0,6.588-2.293,7.707-5.48  c6.664,2.742,11.547,8.944,12.312,16.54c0.115,1.092,1.037,1.929,2.143,1.907c2.541,0.013,4.604,2.087,4.604,4.631  c0,1.684-0.914,3.148-2.266,3.958H25.508c-1.354-0.809-2.268-2.273-2.268-3.958C23.24,38.389,25.303,36.316,27.842,36.301z   M50.01,86.723L27.73,49.13h44.541L50.01,86.723z"/>
  </symbol>


</svg>
